<svg width="18" height="13" viewBox="0 0 18 13" fill="none" xmlns="http://www.w3.org/2000/svg">
<path fill-rule="evenodd" clip-rule="evenodd" d="M16 1H5.36263C5.02648 1 4.71281 1.1689 4.52777 1.44954L1.56074 5.94954C1.34055 6.28349 1.34055 6.71651 1.56074 7.05046L4.52777 11.5505C4.71281 11.8311 5.02648 12 5.36263 12H16C16.5523 12 17 11.5523 17 11V2C17 1.44771 16.5523 1 16 1ZM5.36263 0C4.69032 0 4.06299 0.337793 3.69291 0.899082L0.725875 5.39908C0.285508 6.06697 0.285507 6.93303 0.725874 7.60092L3.69291 12.1009C4.06299 12.6622 4.69032 13 5.36263 13H16C17.1046 13 18 12.1046 18 11V2C18 0.895431 17.1046 0 16 0H5.36263ZM10.5 5.79291L12.6465 3.64645L13.3536 4.35356L11.2071 6.50001L13.3535 8.64645L12.6464 9.35356L10.5 7.20712L8.35356 9.35356L7.64645 8.64645L9.79289 6.50001L7.64644 4.35356L8.35355 3.64645L10.5 5.79291Z" fill="black"/>
</svg>
