<svg width="14" height="16" viewBox="0 0 14 16" fill="none" xmlns="http://www.w3.org/2000/svg">
<path fill-rule="evenodd" clip-rule="evenodd" d="M12 15L2 15C1.44772 15 1 14.5523 1 14L1 2C1 1.44772 1.44772 1 2 1L8.7396 1C8.82822 1 8.91573 1.01177 9 1.0345V5H13L13 14C13 14.5523 12.5523 15 12 15ZM12.4948 4L10 1.7824V4H12.4948ZM13.3287 3.40331L10.0683 0.505182C9.70223 0.179758 9.22943 0 8.7396 0H2C0.895432 0 0 0.895431 0 2V14C0 15.1046 0.895431 16 2 16H12C13.1046 16 14 15.1046 14 14L14 4.89813C14 4.32686 13.7557 3.78285 13.3287 3.40331Z" fill="black"/>
</svg>
