<svg width="25" height="23" viewBox="0 0 25 23" fill="none" xmlns="http://www.w3.org/2000/svg">
<path fill-rule="evenodd" clip-rule="evenodd" d="M9 17C13.4183 17 17 13.4183 17 9C17 4.58172 13.4183 1 9 1C4.58172 1 1 4.58172 1 9C1 13.4183 4.58172 17 9 17ZM9 18C13.9706 18 18 13.9706 18 9C18 4.02944 13.9706 0 9 0C4.02944 0 0 4.02944 0 9C0 13.9706 4.02944 18 9 18ZM9.73347 18.9735C9.49127 18.9911 9.24667 19 8.99999 19C8.83489 19 8.67071 18.996 8.50757 18.9881C10.121 21.4067 12.8744 23 16 23C20.9705 23 25 18.9706 25 14C25 9.82109 22.1519 6.3074 18.2909 5.29416C18.4414 5.67127 18.5697 6.0597 18.674 6.45781C21.7773 7.55812 24 10.5195 24 14C24 18.4183 20.4183 22 16 22C13.4614 22 11.199 20.8176 9.73347 18.9735ZM7.88068 9.95455H9.87499C10.5227 9.95455 11.0568 9.83665 11.4773 9.60085C11.8977 9.36506 12.2102 9.05114 12.4148 8.65909C12.6193 8.26705 12.7216 7.83523 12.7216 7.36364C12.7216 6.89205 12.6193 6.46023 12.4148 6.06818C12.2102 5.67614 11.8977 5.36222 11.4773 5.12642C11.0568 4.89063 10.5227 4.77273 9.87499 4.77273H6.82386V9.01705H5.44318V9.95455H6.82386V10.7727H5.44318V11.7102H6.82386V13.5H7.88068V11.7102H9.80681V10.7727H7.88068V9.95455ZM7.88068 9.01705H9.87499C10.2841 9.01705 10.6222 8.94602 10.8892 8.80398C11.1562 8.65909 11.3551 8.46307 11.4858 8.21591C11.6165 7.96591 11.6818 7.68182 11.6818 7.36364C11.6818 7.04546 11.6165 6.76278 11.4858 6.51563C11.3551 6.26563 11.1562 6.0696 10.8892 5.92756C10.6222 5.78267 10.2841 5.71023 9.87499 5.71023H7.88068V9.01705Z" fill="black"/>
</svg>
