<svg width="224" height="176" viewBox="0 0 224 176" fill="none" xmlns="http://www.w3.org/2000/svg">
<rect x="56" y="64" width="16" height="16" fill="#1E1E1E"/>
<rect x="152" y="64" width="16" height="16" fill="#1E1E1E"/>
<rect x="88" y="64" width="16" height="16" fill="#1E1E1E"/>
<rect x="120" y="64" width="16" height="16" fill="#1E1E1E"/>
<rect x="96" width="16" height="16" fill="#1E1E1E"/>
<rect x="80" width="16" height="16" fill="#1E1E1E"/>
<rect x="64" width="16" height="16" fill="#1E1E1E"/>
<rect x="48" width="16" height="16" fill="#1E1E1E"/>
<rect x="32" width="16" height="16" fill="#1E1E1E"/>
<rect x="16" y="16" width="16" height="16" fill="#1E1E1E"/>
<rect y="32" width="16" height="16" fill="#1E1E1E"/>
<rect y="48" width="16" height="16" fill="#1E1E1E"/>
<rect y="64" width="16" height="16" fill="#1E1E1E"/>
<rect y="80" width="16" height="16" fill="#1E1E1E"/>
<rect y="96" width="16" height="16" fill="#1E1E1E"/>
<rect x="16" y="112" width="16" height="16" fill="#1E1E1E"/>
<rect x="32" y="128" width="16" height="16" fill="#1E1E1E"/>
<rect x="64" y="128" width="16" height="16" fill="#1E1E1E"/>
<rect x="48" y="128" width="16" height="16" fill="#1E1E1E"/>
<rect x="80" y="144" width="16" height="16" fill="#1E1E1E"/>
<rect x="96" y="128" width="16" height="16" fill="#1E1E1E"/>
<rect x="128" y="128" width="16" height="16" fill="#1E1E1E"/>
<rect x="144" y="128" width="16" height="16" fill="#1E1E1E"/>
<rect x="160" y="128" width="16" height="16" fill="#1E1E1E"/>
<rect x="176" y="128" width="16" height="16" fill="#1E1E1E"/>
<rect x="176" width="16" height="16" fill="#1E1E1E"/>
<rect x="192" y="112" width="16" height="16" fill="#1E1E1E"/>
<rect x="160" width="16" height="16" fill="#1E1E1E"/>
<rect x="96" y="160" width="16" height="16" fill="#1E1E1E"/>
<rect x="208" y="96" width="16" height="16" fill="#1E1E1E"/>
<rect x="208" y="80" width="16" height="16" fill="#1E1E1E"/>
<rect x="208" y="64" width="16" height="16" fill="#1E1E1E"/>
<rect x="208" y="48" width="16" height="16" fill="#1E1E1E"/>
<rect x="208" y="32" width="16" height="16" fill="#1E1E1E"/>
<rect x="192" y="16" width="16" height="16" fill="#1E1E1E"/>
<rect x="96" y="144" width="16" height="16" fill="#1E1E1E"/>
<rect x="144" width="16" height="16" fill="#1E1E1E"/>
<rect x="128" width="16" height="16" fill="#1E1E1E"/>
<rect x="112" width="16" height="16" fill="#1E1E1E"/>
<rect x="112" y="128" width="16" height="16" fill="#1E1E1E"/>
</svg>
